<svg width="991" height="1715" viewBox="0 0 991 1715" fill="none" xmlns="http://www.w3.org/2000/svg">
<g filter="url(#filter0_f_0_5)">
<path d="M444 693C444 773.634 251.93 839 15 839C9.97937 839 4.97893 838.971 7.62939e-06 838.912C7.62939e-06 774.5 -6.10352e-05 762.925 -6.10352e-05 684C-6.10352e-05 605.075 -5.34058e-05 599.5 7.62939e-06 547.088C4.97894 547.029 9.97937 547 15 547C251.93 547 444 612.366 444 693Z" fill="#6927D4"/>
</g>
<g style="mix-blend-mode:color-dodge" filter="url(#filter1_f_0_5)">
<path d="M179.938 853.211C179.938 985.568 103.991 1097.3 8.4298e-05 1132.72C8.4298e-05 1102.5 8.4298e-05 1025.5 8.81127e-05 1073.5C7.24792e-05 997 1.70453e-08 1014.04 1.70453e-08 853.211C1.70453e-08 692.38 8.4298e-05 732 8.4298e-05 638C8.4298e-05 620 8.4298e-05 614.5 8.4298e-05 573.705C103.991 609.12 179.938 720.854 179.938 853.211Z" fill="#D427A3"/>
</g>
<g style="mix-blend-mode:plus-lighter" filter="url(#filter2_f_0_5)">
<path d="M86.1095 915.711C86.1095 1003.42 52.76 1082.07 0.000116495 1135.46C0.000116495 1081 0.000116495 1032 0.000116495 991C0.000118256 950 0.000101236 1076.54 0.000101236 915.711C0.000101236 754.88 7.45332e-05 898 0.000116495 861.5C0.000116495 803.5 0.000116495 626.5 0.000116495 695.963C52.76 749.352 86.1095 828.003 86.1095 915.711Z" fill="#FAADE4"/>
</g>
<g filter="url(#filter3_f_0_5)">
<path d="M444 703C444 783.634 251.93 849 15 849C9.97939 849 4.97893 848.971 7.62939e-06 848.912C7.62939e-06 742.5 0 781.925 0 703C0 624.075 7.62939e-06 669 7.62939e-06 557.088C4.97894 557.029 9.97938 557 15 557C251.93 557 444 622.366 444 703Z" fill="#6927D4"/>
</g>
<g style="mix-blend-mode:color-dodge" filter="url(#filter4_f_0_5)">
<path d="M331 1089C331 1223.21 218.847 1332 80.5 1332C52.3398 1332 25.2648 1327.49 -1.90735e-05 1319.18C-1.90735e-05 1232.5 -0.00012207 1187.39 -0.00012207 1080.5C-0.00012207 973.612 -1.90735e-05 967.5 -1.90735e-05 858.819C25.2648 850.508 52.3397 846 80.5 846C218.847 846 331 954.795 331 1089Z" fill="#EB23D7"/>
</g>
<defs>
<filter id="filter0_f_0_5" x="-546.875" y="0.125" width="1537.75" height="1385.75" filterUnits="userSpaceOnUse" color-interpolation-filters="sRGB">
<feFlood flood-opacity="0" result="BackgroundImageFix"/>
<feBlend mode="normal" in="SourceGraphic" in2="BackgroundImageFix" result="shape"/>
<feGaussianBlur stdDeviation="273.438" result="effect1_foregroundBlur_0_5"/>
</filter>
<filter id="filter1_f_0_5" x="-546.875" y="26.8304" width="1273.69" height="1652.76" filterUnits="userSpaceOnUse" color-interpolation-filters="sRGB">
<feFlood flood-opacity="0" result="BackgroundImageFix"/>
<feBlend mode="normal" in="SourceGraphic" in2="BackgroundImageFix" result="shape"/>
<feGaussianBlur stdDeviation="273.438" result="effect1_foregroundBlur_0_5"/>
</filter>
<filter id="filter2_f_0_5" x="-382.812" y="297.24" width="851.734" height="1221.03" filterUnits="userSpaceOnUse" color-interpolation-filters="sRGB">
<feFlood flood-opacity="0" result="BackgroundImageFix"/>
<feBlend mode="normal" in="SourceGraphic" in2="BackgroundImageFix" result="shape"/>
<feGaussianBlur stdDeviation="191.406" result="effect1_foregroundBlur_0_5"/>
</filter>
<filter id="filter3_f_0_5" x="-546.875" y="10.125" width="1537.75" height="1385.75" filterUnits="userSpaceOnUse" color-interpolation-filters="sRGB">
<feFlood flood-opacity="0" result="BackgroundImageFix"/>
<feBlend mode="normal" in="SourceGraphic" in2="BackgroundImageFix" result="shape"/>
<feGaussianBlur stdDeviation="273.438" result="effect1_foregroundBlur_0_5"/>
</filter>
<filter id="filter4_f_0_5" x="-382.813" y="463.188" width="1096.63" height="1251.62" filterUnits="userSpaceOnUse" color-interpolation-filters="sRGB">
<feFlood flood-opacity="0" result="BackgroundImageFix"/>
<feBlend mode="normal" in="SourceGraphic" in2="BackgroundImageFix" result="shape"/>
<feGaussianBlur stdDeviation="191.406" result="effect1_foregroundBlur_0_5"/>
</filter>
</defs>
</svg>
